<?xml version="1.0" standalone="no"?>
<!DOCTYPE svg PUBLIC "-//W3C//DTD SVG 20010904//EN"
 "http://www.w3.org/TR/2001/REC-SVG-20010904/DTD/svg10.dtd">
<svg version="1.0" xmlns="http://www.w3.org/2000/svg"
 width="648.000000pt" height="648.000000pt" viewBox="0 0 648.000000 648.000000"
 preserveAspectRatio="xMidYMid meet">
<metadata>
Created by potrace 1.14, written by Peter Selinger 2001-2017
</metadata>
<g transform="translate(0.000000,648.000000) scale(0.100000,-0.100000)"
fill="#000000" stroke="none">
<path d="M1435 6439 c-32 -28 -35 -36 -35 -83 0 -46 5 -59 50 -120 28 -38 49
-70 48 -72 -2 -1 -79 2 -173 7 -93 4 -313 13 -489 19 -175 6 -363 15 -418 21
-133 15 -253 9 -301 -15 -114 -56 -138 -203 -91 -561 8 -66 20 -133 26 -148
22 -58 17 -57 444 -57 l392 0 6 -62 c3 -35 8 -143 11 -241 l7 -179 -69 38
c-37 20 -105 59 -149 86 -69 40 -90 48 -133 48 -42 0 -56 -5 -83 -29 l-33 -29
-7 -224 c-6 -230 -1 -299 28 -344 23 -33 103 -88 299 -200 l160 -92 7 -49 c3
-26 7 -132 7 -234 l1 -186 -107 -7 c-138 -9 -269 -25 -311 -38 -62 -19 -67
-37 -71 -283 -4 -256 2 -291 59 -348 l39 -38 200 7 201 7 0 -230 0 -230 -137
-90 c-173 -113 -226 -168 -243 -249 -16 -77 -7 -269 19 -389 16 -76 24 -94 52
-118 30 -28 36 -29 100 -25 53 4 81 13 133 41 l66 37 0 -39 c0 -35 -3 -40 -29
-46 -15 -3 -41 -20 -57 -36 -23 -24 -29 -39 -29 -77 0 -26 3 -58 7 -72 5 -17
-37 18 -130 110 -76 74 -166 156 -201 182 -55 42 -69 48 -112 48 -40 0 -54 -5
-84 -31 -32 -28 -35 -36 -35 -83 0 -32 6 -61 17 -76 18 -27 202 -238 265 -305
20 -21 36 -40 35 -41 -1 -2 -34 6 -72 17 -102 28 -155 26 -188 -9 -23 -24 -27
-37 -27 -89 0 -99 -2 -98 329 -207 l288 -96 1486 0 c1102 0 1493 3 1511 12 14
6 33 22 41 35 l16 24 25 -30 c30 -36 81 -48 135 -32 53 16 69 43 69 117 0 51
-4 65 -25 88 -21 23 -32 26 -89 26 -59 0 -66 -2 -89 -30 l-26 -30 -30 30 -29
30 -498 0 c-273 0 -495 2 -493 4 2 2 40 11 84 20 103 21 135 51 135 126 0 41
-5 55 -31 85 -29 33 -35 35 -90 35 -48 0 -159 -22 -426 -85 -19 -4 -23 -1 -23
18 0 13 -11 36 -25 51 -40 43 -99 37 -300 -34 -93 -33 -173 -60 -177 -60 -3 0
-22 16 -41 35 -46 46 -74 46 -238 -5 -72 -22 -135 -40 -141 -40 -5 0 24 37 64
82 102 114 108 124 108 185 0 44 -5 58 -28 84 -23 26 -38 32 -81 37 l-52 5
-149 -149 c-83 -81 -150 -146 -150 -144 0 3 7 27 15 54 8 27 15 71 15 98 0 41
-5 54 -29 79 -26 26 -36 29 -90 29 -33 0 -63 -5 -66 -10 -18 -30 -25 2 -25
118 l0 128 184 102 c101 56 195 112 210 123 44 35 56 70 56 168 0 96 -15 173
-74 371 -41 139 -60 160 -140 160 -47 0 -63 -6 -139 -54 l-87 -55 0 148 0 148
83 6 c45 4 169 7 275 7 110 0 212 5 238 11 117 30 143 120 129 444 l-7 168
-32 35 -32 34 -332 6 -332 5 0 162 0 163 104 -54 c82 -43 114 -54 150 -54 97
0 126 47 126 202 -1 135 -24 378 -38 405 -18 34 -86 84 -217 161 -66 39 -126
75 -134 79 -10 7 -15 60 -22 228 -4 121 -8 259 -9 308 l0 87 230 0 c127 0 230
-2 230 -5 0 -3 -16 -43 -35 -89 -45 -109 -47 -163 -7 -207 23 -25 38 -33 78
-36 47 -5 60 1 299 121 303 152 419 215 645 348 147 87 160 102 160 178 0 53
-3 61 -32 85 -17 14 -63 42 -101 62 -184 92 -833 457 -986 554 -65 42 -137 41
-186 -2z m-631 -1725 c102 -58 116 -69 116 -93 0 -14 3 -50 7 -80 l6 -54 -59
33 c-32 19 -89 53 -126 77 l-68 43 0 70 c0 38 2 70 4 70 3 0 57 -30 120 -66z
m472 -271 c17 -14 23 -34 28 -85 4 -38 3 -68 -1 -68 -4 0 -35 15 -68 33 l-60
32 -3 77 -3 77 43 -24 c24 -14 53 -33 64 -42z m389 -955 c12 -12 17 -172 6
-188 -9 -12 -50 -16 -246 -18 l-235 -4 0 112 0 112 234 -4 c129 -2 238 -6 241
-10z m-721 -59 c3 -34 6 -84 6 -110 l0 -49 -130 0 -130 0 0 99 0 100 53 5 c46
6 84 9 168 14 25 2 26 -1 33 -59z m386 -922 c0 -2 9 -46 20 -97 11 -51 20 -95
20 -96 0 -4 -183 -104 -185 -102 -2 2 0 49 3 106 l5 103 61 44 c55 40 76 51
76 42z m-390 -349 l0 -83 -60 -33 -60 -33 0 83 0 83 53 32 c28 18 55 32 60 33
4 0 7 -37 7 -82z"/>
<path d="M4342 1171 c-76 -5 -86 -9 -108 -34 -20 -23 -24 -39 -24 -88 0 -54 3
-64 30 -90 l29 -30 242 3 241 3 29 33 c24 27 29 41 29 85 0 66 -28 104 -85
117 -43 10 -245 10 -383 1z"/>
<path d="M5906 869 c-20 -23 -26 -42 -26 -78 l0 -48 -52 3 c-29 2 -404 5 -833
8 l-779 4 -33 -33 c-28 -28 -33 -40 -33 -79 0 -77 36 -126 92 -126 16 0 4 -10
-41 -35 -36 -19 -69 -39 -75 -45 -18 -18 -24 -11 -31 37 -5 34 -16 56 -40 80
-29 29 -39 33 -87 33 -66 0 -91 -16 -119 -78 l-21 -46 -30 59 c-47 93 -72 115
-133 115 -28 0 -60 -6 -72 -15 -20 -14 -21 -13 -27 23 -3 22 -17 48 -32 63
-25 24 -29 24 -201 24 l-175 0 -29 -33 c-25 -27 -29 -41 -29 -88 0 -48 4 -59
29 -85 l29 -29 172 0 c99 0 179 4 191 10 16 9 19 7 19 -14 0 -14 18 -65 40
-112 22 -48 39 -89 37 -90 -4 -4 -1232 13 -1564 22 l-251 6 -7 27 c-4 14 -18
38 -33 54 -32 34 -92 36 -176 7 -53 -18 -57 -18 -62 -2 -18 55 -30 75 -57 98
-28 23 -38 26 -96 22 l-65 -4 -63 -70 c-34 -38 -63 -64 -63 -59 -1 52 -23 132
-42 152 l-23 25 25 -6 c14 -3 225 -10 470 -16 245 -6 535 -15 645 -20 224 -9
252 -4 279 49 37 71 7 162 -61 181 -21 5 -282 17 -583 25 -300 9 -645 18 -767
22 l-221 6 -31 -31 c-28 -27 -31 -37 -31 -92 0 -55 3 -65 29 -91 22 -21 39
-29 66 -29 l36 0 -20 -26 c-12 -15 -21 -35 -21 -45 0 -11 -3 -19 -7 -19 -3 0
-61 36 -129 80 -113 74 -126 80 -174 80 -36 0 -61 -6 -80 -20 -33 -23 -55 -79
-47 -119 7 -36 169 -273 227 -332 l45 -46 100 -6 c120 -8 508 -23 965 -37 325
-10 845 -19 2455 -40 424 -6 902 -15 1063 -20 309 -11 314 -11 350 34 l19 25
28 -29 c34 -36 71 -45 124 -30 56 15 81 50 81 116 0 42 -5 59 -26 83 -48 57
-156 51 -194 -12 -11 -18 -20 -25 -20 -16 0 8 -11 26 -24 38 -23 22 -35 23
-248 31 -122 5 -313 10 -423 11 l-200 1 75 18 c92 22 110 41 110 115 0 38 -6
60 -21 79 l-20 26 338 0 c186 0 375 -3 421 -7 l82 -6 0 -54 c0 -47 4 -59 29
-84 50 -49 59 -48 486 87 129 41 165 79 165 173 0 45 -5 56 -37 92 -41 45 -74
62 -276 138 -168 63 -221 67 -261 20z m-1276 -394 c-47 -19 -86 -35 -87 -35
-2 0 -3 16 -3 35 l0 35 88 0 87 0 -85 -35z"/>
<path d="M2764 730 c-41 -16 -64 -59 -64 -117 0 -47 4 -59 29 -84 26 -25 37
-29 88 -29 52 0 63 3 87 29 53 56 40 166 -24 198 -28 14 -85 16 -116 3z"/>
</g>
</svg>
